# xmcd
# 
# Track frame offsets:
#     150
#     17140
#     35753
#     54580
#     74327
#     93094
#     113739
#     131542
#     153006
#     168457
#     185751
#     202699
#     222186
#     243891
#     259391
#     278057
#     297010
#     312217
#     331055
# 
# Disc length: 4499
# 
# Revision: 0
# Processed by: cddbd v1.5.2PL0 Copyright (c) Steve Scherf et al.
# Submitted via: fre:ac v1.0.31
# 
DISCID=09119113
DTITLE=mCcALL sMITH - D10 - Importance of Being 7
DYEAR=0
DGENRE=Audiobook
TTITLE0=a
TTITLE1=b
TTITLE2=c
TTITLE3=d
TTITLE4=e
TTITLE5=f
TTITLE6=g
TTITLE7=h
TTITLE8=i
TTITLE9=j
TTITLE10=k
TTITLE11=l
TTITLE12=m
TTITLE13=n
TTITLE14=o
TTITLE15=p
TTITLE16=q
TTITLE17=r
TTITLE18=s
EXTD=
EXTT0=
EXTT1=
EXTT2=
EXTT3=
EXTT4=
EXTT5=
EXTT6=
EXTT7=
EXTT8=
EXTT9=
EXTT10=
EXTT11=
EXTT12=
EXTT13=
EXTT14=
EXTT15=
EXTT16=
EXTT17=
EXTT18=
PLAYORDER=
